<?xml version="1.0" encoding="UTF-8" standalone="no"?><!-- Generator: Gravit.io --><svg xmlns="http://www.w3.org/2000/svg" xmlns:xlink="http://www.w3.org/1999/xlink" style="isolation:isolate" viewBox="0 0 110 110" width="110pt" height="110pt"><defs><clipPath id="_clipPath_qc052la7hPEVdR0PTFcmyPG2yIkvVfHv"><rect width="110" height="110"/></clipPath></defs><g clip-path="url(#_clipPath_qc052la7hPEVdR0PTFcmyPG2yIkvVfHv)"><linearGradient id="_lgradient_1" x1="0.42000892325603534" y1="0.39560421637848336" x2="0.9843055813673431" y2="0.7226557997669274" gradientTransform="matrix(103.482,0,0,100.018,3.259,4.991)" gradientUnits="userSpaceOnUse"><stop offset="0.8695652173913043%" stop-opacity="1" style="stop-color:rgb(241,98,99)"/><stop offset="98.69565217391305%" stop-opacity="1" style="stop-color:rgb(246,145,106)"/></linearGradient><path d=" M 106.701 26.352 Q 106.762 4.991 106.73 4.991 Q 106.667 4.96 42.73 21.593 Q 42.855 21.53 42.525 78.811 C 38.41 75.889 32.599 74.099 26.033 74.099 C 13.248 74.099 3.259 80.884 3.259 89.554 C 3.259 98.224 13.248 105.009 26.033 105.009 C 38.818 105.009 48.808 98.224 48.808 89.554 L 48.808 38.593 C 52.755 37.139 56.004 36.159 58.497 35.593 C 64.124 34.088 69.49 33.108 74.533 32.593 C 82.75 31.547 91.378 30.859 100.387 30.498 L 100.387 63.387 C 96.272 60.466 90.461 58.675 83.896 58.675 C 71.111 58.675 61.121 65.46 61.121 74.13 C 61.121 82.8 71.111 89.585 83.896 89.585 C 96.681 89.585 106.67 82.8 106.67 74.13 C 106.67 73.785 106.638 73.439 106.607 73.094 C 106.638 72.905 106.67 72.717 106.67 72.528 L 106.67 26.352 L 106.701 26.352 L 106.701 26.352 Z  M 74.035 27.074 C 68.582 27.972 63.364 29.124 58.35 30.498 C 55.038 31.26 51.867 32.301 48.808 33.593 L 48.839 27.074 L 100.419 11.965 L 100.419 23.964 C 97.572 23.83 76.593 26.54 74.035 27.074 Z " fill="url(#_lgradient_1)"/></g></svg>